<svg width="72" height="235" viewBox="0 0 72 235" fill="none" xmlns="http://www.w3.org/2000/svg">
<path d="M35.4997 91.5L35.1827 92.4484L35.4997 91.5ZM65.9997 235L71.6343 224.921L60.0884 225.081L65.9997 235ZM65.9997 72.5L66.6893 71.7759L65.9997 72.5ZM3.99968 122.5L3.07748 122.887L3.99968 122.5ZM36 0.5C36 1.72387 35.9228 3.0405 35.7781 4.44113L37.7675 4.64658C37.9177 3.19271 38 1.80609 38 0.5H36ZM34.483 12.3772C33.9599 14.8872 33.3279 17.533 32.629 20.2783L34.5672 20.7718C35.2704 18.0097 35.9098 15.3335 36.4409 12.7853L34.483 12.3772ZM30.5488 28.1306C29.8479 30.7122 29.1244 33.3477 28.4127 35.9967L30.3442 36.5157C31.0552 33.8695 31.7759 31.244 32.4789 28.6546L30.5488 28.1306ZM26.3571 43.8995C25.6921 46.5743 25.068 49.242 24.5167 51.8732L26.4742 52.2833C27.0191 49.6824 27.6373 47.0396 28.298 44.3821L26.3571 43.8995ZM23.0653 59.9582C22.6575 62.7819 22.3815 65.5291 22.2839 68.1574L24.2825 68.2317C24.3769 65.6893 24.6447 63.0145 25.0448 60.2441L23.0653 59.9582ZM22.691 76.4781C23.1506 79.4338 23.9905 82.1474 25.3246 84.5125L27.0666 83.5299C25.8772 81.4214 25.0994 78.9496 24.6672 76.1708L22.691 76.4781ZM31.2672 90.6588C32.4439 91.3697 33.7468 91.9685 35.1827 92.4484L35.8167 90.5516C34.5108 90.1151 33.3434 89.5765 32.3014 88.947L31.2672 90.6588ZM35.1827 92.4484C36.5467 92.9043 37.9247 93.2762 39.305 93.5696L39.7207 91.6132C38.4118 91.3351 37.1068 90.9828 35.8167 90.5516L35.1827 92.4484ZM47.784 94.4294C50.7426 94.4119 53.6061 94.0667 56.253 93.4474L55.7974 91.5C53.2994 92.0845 50.5849 92.4128 47.7721 92.4294L47.784 94.4294ZM64.2657 90.3488C67.1003 88.6835 69.3056 86.5393 70.3999 84.0269L68.5662 83.2282C67.6949 85.2289 65.86 87.0926 63.2526 88.6244L64.2657 90.3488ZM69.5129 75.1761C68.8074 74.0359 67.8696 72.9 66.6893 71.7759L65.31 73.2241C66.3877 74.2505 67.2105 75.2561 67.8121 76.2284L69.5129 75.1761ZM66.6893 71.7759C65.6515 70.7874 64.618 69.8577 63.5895 68.985L62.2955 70.51C63.2937 71.3569 64.2987 72.261 65.31 73.2241L66.6893 71.7759ZM56.9114 64.0562C54.3959 62.4758 51.9173 61.2292 49.484 60.291L48.7644 62.157C51.0681 63.0453 53.4319 64.2321 55.8474 65.7497L56.9114 64.0562ZM41.3606 58.2477C38.455 57.9108 35.6465 58.0144 32.955 58.501L33.3108 60.4691C35.8092 60.0174 38.4202 59.9202 41.1303 60.2344L41.3606 58.2477ZM24.9818 61.1862C22.5048 62.43 20.1787 64.0064 18.0207 65.8474L19.3188 67.3689C21.3661 65.6223 23.5591 64.1386 25.8793 62.9735L24.9818 61.1862ZM12.2515 71.8647C10.55 74.0082 9.00671 76.3304 7.63539 78.7794L9.38045 79.7566C10.7029 77.3948 12.1873 75.1625 13.818 73.1082L12.2515 71.8647ZM4.11544 86.2872C3.11997 88.867 2.29905 91.5225 1.6663 94.207L3.61296 94.6658C4.22477 92.0701 5.0187 89.5019 5.98135 87.0071L4.11544 86.2872ZM0.337929 102.393C0.0900398 105.198 0.0605084 107.987 0.26636 110.708L2.26066 110.557C2.0636 107.953 2.09122 105.273 2.33016 102.569L0.337929 102.393ZM1.6969 118.929C2.0823 120.287 2.54151 121.609 3.07748 122.887L4.92187 122.113C4.41853 120.913 3.98544 119.667 3.62083 118.383L1.6969 118.929ZM3.07748 122.887C3.6235 124.189 4.27957 125.459 5.03048 126.708L6.74424 125.677C6.03707 124.501 5.4264 123.316 4.92187 122.113L3.07748 122.887ZM10.1118 133.501C11.8764 135.506 13.8402 137.506 15.9385 139.541L17.3307 138.105C15.2526 136.09 13.3298 134.13 11.6132 132.179L10.1118 133.501ZM22.0135 145.264C23.9808 147.091 26.0085 148.973 28.0663 150.94L29.4483 149.494C27.3783 147.515 25.3398 145.624 23.3746 143.798L22.0135 145.264ZM33.9455 156.762C35.8186 158.698 37.6871 160.72 39.5255 162.85L41.0394 161.543C39.1724 159.38 37.2777 157.329 35.3826 155.371L33.9455 156.762ZM44.6958 169.271C46.3037 171.422 47.8659 173.678 49.3627 176.053L51.0548 174.987C49.5278 172.564 47.9352 170.264 46.2978 168.073L44.6958 169.271ZM53.4534 183.194C54.6836 185.571 55.8447 188.058 56.9217 190.667L58.7704 189.904C57.6709 187.241 56.4855 184.701 55.2296 182.274L53.4534 183.194ZM59.7334 198.385C60.5404 200.924 61.2696 203.569 61.9103 206.327L63.8584 205.874C63.2057 203.065 62.4625 200.369 61.6394 197.78L59.7334 198.385ZM63.4742 214.414C63.886 217.051 64.2204 219.783 64.4701 222.616L66.4623 222.44C66.2088 219.564 65.869 216.787 65.4503 214.105L63.4742 214.414Z" fill="#132573" fill-opacity="0.5"/>
</svg>
