<svg width="168" height="174" viewBox="0 0 168 174" fill="none" xmlns="http://www.w3.org/2000/svg">
<rect width="9.1579" height="9.1579" rx="4.57895" fill="#E8E8E8"/>
<rect x="15.8738" width="9.1579" height="9.1579" rx="4.57895" fill="#E8E8E8"/>
<rect x="31.7473" width="9.1579" height="9.1579" rx="4.57895" fill="#E8E8E8"/>
<rect x="47.6211" width="9.1579" height="9.1579" rx="4.57895" fill="#E8E8E8"/>
<rect x="63.4946" width="9.1579" height="9.1579" rx="4.57895" fill="#E8E8E8"/>
<rect x="79.3684" width="9.1579" height="9.1579" rx="4.57895" fill="#E8E8E8"/>
<rect x="95.2419" width="9.1579" height="9.1579" rx="4.57895" fill="#E8E8E8"/>
<rect x="111.116" width="9.1579" height="9.1579" rx="4.57895" fill="#E8E8E8"/>
<rect x="126.99" width="9.1579" height="9.1579" rx="4.57895" fill="#E8E8E8"/>
<rect x="142.863" width="9.1579" height="9.1579" rx="4.57895" fill="#E8E8E8"/>
<rect x="158.737" width="9.1579" height="9.1579" rx="4.57895" fill="#E8E8E8"/>
<rect y="18.3164" width="9.1579" height="9.1579" rx="4.57895" fill="#E8E8E8"/>
<rect x="15.8738" y="18.3164" width="9.1579" height="9.1579" rx="4.57895" fill="#E8E8E8"/>
<rect x="31.7473" y="18.3164" width="9.1579" height="9.1579" rx="4.57895" fill="#E8E8E8"/>
<rect x="47.6211" y="18.3164" width="9.1579" height="9.1579" rx="4.57895" fill="#E8E8E8"/>
<rect x="63.4946" y="18.3164" width="9.1579" height="9.1579" rx="4.57895" fill="#E8E8E8"/>
<rect x="79.3684" y="18.3164" width="9.1579" height="9.1579" rx="4.57895" fill="#E8E8E8"/>
<rect x="95.2419" y="18.3164" width="9.1579" height="9.1579" rx="4.57895" fill="#E8E8E8"/>
<rect x="111.116" y="18.3164" width="9.1579" height="9.1579" rx="4.57895" fill="#E8E8E8"/>
<rect x="126.99" y="18.3164" width="9.1579" height="9.1579" rx="4.57895" fill="#E8E8E8"/>
<rect x="142.863" y="18.3164" width="9.1579" height="9.1579" rx="4.57895" fill="#E8E8E8"/>
<rect x="158.737" y="18.3164" width="9.1579" height="9.1579" rx="4.57895" fill="#E8E8E8"/>
<rect y="36.6309" width="9.1579" height="9.1579" rx="4.57895" fill="#E8E8E8"/>
<rect x="15.8738" y="36.6309" width="9.1579" height="9.1579" rx="4.57895" fill="#E8E8E8"/>
<rect x="31.7473" y="36.6309" width="9.1579" height="9.1579" rx="4.57895" fill="#E8E8E8"/>
<rect x="47.6211" y="36.6309" width="9.1579" height="9.1579" rx="4.57895" fill="#E8E8E8"/>
<rect x="63.4946" y="36.6309" width="9.1579" height="9.1579" rx="4.57895" fill="#E8E8E8"/>
<rect x="79.3684" y="36.6309" width="9.1579" height="9.1579" rx="4.57895" fill="#E8E8E8"/>
<rect x="95.2419" y="36.6309" width="9.1579" height="9.1579" rx="4.57895" fill="#E8E8E8"/>
<rect x="111.116" y="36.6309" width="9.1579" height="9.1579" rx="4.57895" fill="#E8E8E8"/>
<rect x="126.99" y="36.6309" width="9.1579" height="9.1579" rx="4.57895" fill="#E8E8E8"/>
<rect x="142.863" y="36.6309" width="9.1579" height="9.1579" rx="4.57895" fill="#E8E8E8"/>
<rect x="158.737" y="36.6309" width="9.1579" height="9.1579" rx="4.57895" fill="#E8E8E8"/>
<rect y="54.9473" width="9.1579" height="9.1579" rx="4.57895" fill="#E8E8E8"/>
<rect x="15.8738" y="54.9473" width="9.1579" height="9.1579" rx="4.57895" fill="#E8E8E8"/>
<rect x="31.7473" y="54.9473" width="9.1579" height="9.1579" rx="4.57895" fill="#E8E8E8"/>
<rect x="47.6211" y="54.9473" width="9.1579" height="9.1579" rx="4.57895" fill="#E8E8E8"/>
<rect x="63.4946" y="54.9473" width="9.1579" height="9.1579" rx="4.57895" fill="#E8E8E8"/>
<rect x="79.3684" y="54.9473" width="9.1579" height="9.1579" rx="4.57895" fill="#E8E8E8"/>
<rect x="95.2419" y="54.9473" width="9.1579" height="9.1579" rx="4.57895" fill="#E8E8E8"/>
<rect x="111.116" y="54.9473" width="9.1579" height="9.1579" rx="4.57895" fill="#E8E8E8"/>
<rect x="126.99" y="54.9473" width="9.1579" height="9.1579" rx="4.57895" fill="#E8E8E8"/>
<rect x="142.863" y="54.9473" width="9.1579" height="9.1579" rx="4.57895" fill="#E8E8E8"/>
<rect x="158.737" y="54.9473" width="9.1579" height="9.1579" rx="4.57895" fill="#E8E8E8"/>
<rect y="73.2637" width="9.1579" height="9.1579" rx="4.57895" fill="#E8E8E8"/>
<rect x="15.8738" y="73.2637" width="9.1579" height="9.1579" rx="4.57895" fill="#E8E8E8"/>
<rect x="31.7473" y="73.2637" width="9.1579" height="9.1579" rx="4.57895" fill="#E8E8E8"/>
<rect x="47.6211" y="73.2637" width="9.1579" height="9.1579" rx="4.57895" fill="#E8E8E8"/>
<rect x="63.4946" y="73.2637" width="9.1579" height="9.1579" rx="4.57895" fill="#E8E8E8"/>
<rect x="79.3684" y="73.2637" width="9.1579" height="9.1579" rx="4.57895" fill="#E8E8E8"/>
<rect x="95.2419" y="73.2637" width="9.1579" height="9.1579" rx="4.57895" fill="#E8E8E8"/>
<rect x="111.116" y="73.2637" width="9.1579" height="9.1579" rx="4.57895" fill="#E8E8E8"/>
<rect x="126.99" y="73.2637" width="9.1579" height="9.1579" rx="4.57895" fill="#E8E8E8"/>
<rect x="142.863" y="73.2637" width="9.1579" height="9.1579" rx="4.57895" fill="#E8E8E8"/>
<rect x="158.737" y="73.2637" width="9.1579" height="9.1579" rx="4.57895" fill="#E8E8E8"/>
<rect y="91.5781" width="9.1579" height="9.1579" rx="4.57895" fill="#E8E8E8"/>
<rect x="15.8738" y="91.5781" width="9.1579" height="9.1579" rx="4.57895" fill="#E8E8E8"/>
<rect x="31.7473" y="91.5781" width="9.1579" height="9.1579" rx="4.57895" fill="#E8E8E8"/>
<rect x="47.6211" y="91.5781" width="9.1579" height="9.1579" rx="4.57895" fill="#E8E8E8"/>
<rect x="63.4946" y="91.5781" width="9.1579" height="9.1579" rx="4.57895" fill="#E8E8E8"/>
<rect x="79.3684" y="91.5781" width="9.1579" height="9.1579" rx="4.57895" fill="#E8E8E8"/>
<rect x="95.2419" y="91.5781" width="9.1579" height="9.1579" rx="4.57895" fill="#E8E8E8"/>
<rect x="111.116" y="91.5781" width="9.1579" height="9.1579" rx="4.57895" fill="#E8E8E8"/>
<rect x="126.99" y="91.5781" width="9.1579" height="9.1579" rx="4.57895" fill="#E8E8E8"/>
<rect x="142.863" y="91.5781" width="9.1579" height="9.1579" rx="4.57895" fill="#E8E8E8"/>
<rect x="158.737" y="91.5781" width="9.1579" height="9.1579" rx="4.57895" fill="#E8E8E8"/>
<rect y="109.895" width="9.1579" height="9.1579" rx="4.57895" fill="#E8E8E8"/>
<rect x="15.8738" y="109.895" width="9.1579" height="9.1579" rx="4.57895" fill="#E8E8E8"/>
<rect x="31.7473" y="109.895" width="9.1579" height="9.1579" rx="4.57895" fill="#E8E8E8"/>
<rect x="47.6211" y="109.895" width="9.1579" height="9.1579" rx="4.57895" fill="#E8E8E8"/>
<rect x="63.4946" y="109.895" width="9.1579" height="9.1579" rx="4.57895" fill="#E8E8E8"/>
<rect x="79.3684" y="109.895" width="9.1579" height="9.1579" rx="4.57895" fill="#E8E8E8"/>
<rect x="95.2419" y="109.895" width="9.1579" height="9.1579" rx="4.57895" fill="#E8E8E8"/>
<rect x="111.116" y="109.895" width="9.1579" height="9.1579" rx="4.57895" fill="#E8E8E8"/>
<rect x="126.99" y="109.895" width="9.1579" height="9.1579" rx="4.57895" fill="#E8E8E8"/>
<rect x="142.863" y="109.895" width="9.1579" height="9.1579" rx="4.57895" fill="#E8E8E8"/>
<rect x="158.737" y="109.895" width="9.1579" height="9.1579" rx="4.57895" fill="#E8E8E8"/>
<rect y="128.211" width="9.1579" height="9.1579" rx="4.57895" fill="#E8E8E8"/>
<rect x="15.8738" y="128.211" width="9.1579" height="9.1579" rx="4.57895" fill="#E8E8E8"/>
<rect x="31.7473" y="128.211" width="9.1579" height="9.1579" rx="4.57895" fill="#E8E8E8"/>
<rect x="47.6211" y="128.211" width="9.1579" height="9.1579" rx="4.57895" fill="#E8E8E8"/>
<rect x="63.4946" y="128.211" width="9.1579" height="9.1579" rx="4.57895" fill="#E8E8E8"/>
<rect x="79.3684" y="128.211" width="9.1579" height="9.1579" rx="4.57895" fill="#E8E8E8"/>
<rect x="95.2419" y="128.211" width="9.1579" height="9.1579" rx="4.57895" fill="#E8E8E8"/>
<rect x="111.116" y="128.211" width="9.1579" height="9.1579" rx="4.57895" fill="#E8E8E8"/>
<rect x="126.99" y="128.211" width="9.1579" height="9.1579" rx="4.57895" fill="#E8E8E8"/>
<rect x="142.863" y="128.211" width="9.1579" height="9.1579" rx="4.57895" fill="#E8E8E8"/>
<rect x="158.737" y="128.211" width="9.1579" height="9.1579" rx="4.57895" fill="#E8E8E8"/>
<rect y="146.527" width="9.1579" height="9.1579" rx="4.57895" fill="#E8E8E8"/>
<rect x="15.8738" y="146.527" width="9.1579" height="9.1579" rx="4.57895" fill="#E8E8E8"/>
<rect x="31.7473" y="146.527" width="9.1579" height="9.1579" rx="4.57895" fill="#E8E8E8"/>
<rect x="47.6211" y="146.527" width="9.1579" height="9.1579" rx="4.57895" fill="#E8E8E8"/>
<rect x="63.4946" y="146.527" width="9.1579" height="9.1579" rx="4.57895" fill="#E8E8E8"/>
<rect x="79.3684" y="146.527" width="9.1579" height="9.1579" rx="4.57895" fill="#E8E8E8"/>
<rect x="95.2419" y="146.527" width="9.1579" height="9.1579" rx="4.57895" fill="#E8E8E8"/>
<rect x="111.116" y="146.527" width="9.1579" height="9.1579" rx="4.57895" fill="#E8E8E8"/>
<rect x="126.99" y="146.527" width="9.1579" height="9.1579" rx="4.57895" fill="#E8E8E8"/>
<rect x="142.863" y="146.527" width="9.1579" height="9.1579" rx="4.57895" fill="#E8E8E8"/>
<rect x="158.737" y="146.527" width="9.1579" height="9.1579" rx="4.57895" fill="#E8E8E8"/>
<rect y="164.842" width="9.1579" height="9.1579" rx="4.57895" fill="#E8E8E8"/>
<rect x="15.8738" y="164.842" width="9.1579" height="9.1579" rx="4.57895" fill="#E8E8E8"/>
<rect x="31.7473" y="164.842" width="9.1579" height="9.1579" rx="4.57895" fill="#E8E8E8"/>
<rect x="47.6211" y="164.842" width="9.1579" height="9.1579" rx="4.57895" fill="#E8E8E8"/>
<rect x="63.4946" y="164.842" width="9.1579" height="9.1579" rx="4.57895" fill="#E8E8E8"/>
<rect x="79.3684" y="164.842" width="9.1579" height="9.1579" rx="4.57895" fill="#E8E8E8"/>
<rect x="95.2419" y="164.842" width="9.1579" height="9.1579" rx="4.57895" fill="#E8E8E8"/>
<rect x="111.116" y="164.842" width="9.1579" height="9.1579" rx="4.57895" fill="#E8E8E8"/>
<rect x="126.99" y="164.842" width="9.1579" height="9.1579" rx="4.57895" fill="#E8E8E8"/>
<rect x="142.863" y="164.842" width="9.1579" height="9.1579" rx="4.57895" fill="#E8E8E8"/>
<rect x="158.737" y="164.842" width="9.1579" height="9.1579" rx="4.57895" fill="#E8E8E8"/>
</svg>
